<svg width="48" height="48" viewBox="0 0 48 48" fill="none" xmlns="http://www.w3.org/2000/svg">
<g clip-path="url(#clip0_339_17)">
<path d="M47.4277 24.4484C47.4277 22.4818 47.2681 21.0468 46.9227 19.5586H24.4668V28.4346H37.6479C37.3823 30.6404 35.9472 33.9623 32.7582 36.1944L32.7135 36.4916L39.8136 41.992L40.3055 42.0411C44.8232 37.8688 47.4277 31.7299 47.4277 24.4484Z" fill="#4285F4"/>
<path d="M24.468 47.8356C30.9256 47.8356 36.3469 45.7095 40.3067 42.0423L32.7593 36.1956C30.7397 37.6041 28.029 38.5874 24.468 38.5874C18.1432 38.5874 12.775 34.4152 10.8614 28.6484L10.581 28.6723L3.19811 34.3859L3.10156 34.6543C7.03463 42.4673 15.1135 47.8356 24.468 47.8356Z" fill="#34A853"/>
<path d="M10.8599 28.6476C10.3549 27.1594 10.0627 25.5648 10.0627 23.9172C10.0627 22.2695 10.3549 20.675 10.8333 19.1868L10.8199 18.8699L3.34455 13.0645L3.09997 13.1808C1.47897 16.423 0.548828 20.0638 0.548828 23.9172C0.548828 27.7706 1.47897 31.4113 3.09997 34.6535L10.8599 28.6476Z" fill="#FBBC05"/>
<path d="M24.468 9.24806C28.9591 9.24806 31.9886 11.188 33.716 12.8092L40.4661 6.21856C36.3205 2.36519 30.9256 0 24.468 0C15.1135 0 7.03463 5.36812 3.10156 13.1811L10.8349 19.1872C12.775 13.4204 18.1431 9.24806 24.468 9.24806Z" fill="#EB4335"/>
</g>
<defs>
<clipPath id="clip0_339_17">
<rect width="48" height="48" fill="white"/>
</clipPath>
</defs>
</svg>
