<svg width="22" height="21" viewBox="0 0 22 21" fill="none" xmlns="http://www.w3.org/2000/svg">
<g clip-path="url(#clip0_339_34)">
<path d="M20.6416 8.91096L16.5365 12.9159L17.4376 18.5728C17.5378 19.0735 17.3375 19.5741 16.937 19.8744C16.7368 20.0246 16.4364 20.1247 16.1861 20.1247C15.9859 20.1247 15.7856 20.0747 15.5854 19.9746L10.5291 17.3213L5.42287 19.9746C5.22263 20.0747 5.02238 20.1247 4.82213 20.1247C4.57183 20.1247 4.32152 20.0246 4.07121 19.8744C3.67072 19.5741 3.47047 19.0735 3.5706 18.5728L4.52176 12.9659L0.416718 8.96102C0.0162261 8.61059 -0.0838955 8.10998 0.0662891 7.60936C0.216474 7.10875 0.616961 6.75831 1.11758 6.70825L6.77453 5.90726L9.32767 0.750923C9.57798 0.300369 10.0285 0 10.5291 0C11.0298 0 11.5304 0.300369 11.7306 0.750923L14.2838 5.90726L19.9407 6.70825C20.4413 6.80838 20.8418 7.10875 20.992 7.60936C21.1422 8.05992 20.992 8.61059 20.6416 8.91096Z" fill="#F5B700"/>
</g>
<defs>
<clipPath id="clip0_339_34">
<rect width="21.05" height="20.1247" fill="white"/>
</clipPath>
</defs>
</svg>
