<svg width="260" height="93" viewBox="0 0 260 93" fill="none" xmlns="http://www.w3.org/2000/svg">
<mask id="mask0_249_121" style="mask-type:luminance" maskUnits="userSpaceOnUse" x="70" y="13" width="120" height="80">
<path d="M189.467 13H70V93H189.467V13Z" fill="white"/>
</mask>
<g mask="url(#mask0_249_121)">
<path fill-rule="evenodd" clip-rule="evenodd" d="M167.744 35.438C181.357 35.2549 188.063 51.2165 178.891 60.2352C177.219 61.8794 174.89 63.9336 171.726 64.3216C166.807 64.9249 167.614 61.3713 167.617 57.4531C167.619 53.9417 167.395 37.5311 167.744 35.438ZM151.19 47.0681C151.693 44.2617 154.548 37.7118 155.724 34.6154L160.109 23.0337C160.445 22.4699 160.272 22.7241 160.642 22.3608L160.644 36.27C160.132 37.2788 159.963 37.1108 159.142 37.7216C155.555 40.3904 152.902 45.3759 151.19 47.0681ZM94.7932 32.8434C95.0149 31.4387 95.124 31.6874 96.7708 31.4692C97.7516 31.3392 98.6595 31.2744 99.6905 31.2553C99.3998 31.7844 99.0314 32.6153 98.7127 33.2134C97.2867 33.3195 95.8217 33.5366 94.7932 32.8434ZM94.8119 13.7459C102.041 13.7459 110.758 12.8533 112.065 21.6875C113.051 28.3547 110.597 32.9446 104.018 33.0756C101.72 29.3781 101.023 30.4657 94.7932 31.0354L94.8119 13.7459ZM172.132 19.9567L172.107 19.0183H161.126C159.348 19.4643 150.341 50.4953 146.511 53.9971L136.155 27.5526C135.512 25.894 133.59 19.8274 132.416 19.0183H121.135C121.583 20.365 120.659 19.5576 122.39 19.9206C127.007 20.8886 126.407 20.1941 126.407 27.8592C126.407 31.6147 126.636 61.0841 126.23 62.5016C125.486 65.1048 122.552 63.5848 121.901 64.9294C122.775 65.5201 130.887 65.4839 131.729 64.9294C130.482 62.5314 127.211 68.0103 127.224 58.0763L127.23 23.8375C128.303 25.6509 139.618 55.2482 141.387 60.0539C142.123 62.0525 140.806 63.0435 139.69 64.721C136.571 69.4111 130.598 76.8257 126.493 80.5073C124.116 82.6392 121.425 84.7939 118.487 86.8427C115.591 88.8628 112.751 90.3054 108.632 91.3539C90.9599 95.8525 76.7087 84.2461 72.435 71.844C69.6367 63.724 70.3577 55.4905 73.8491 48.2122C76.4472 42.796 82.9505 35.7715 88.3474 34.1444C88.3729 36.0357 88.5743 51.9096 88.1451 53.1162C87.1726 55.8495 84.8455 53.6926 84.3578 55.5828H98.8313C98.2196 53.7423 95.6858 55.7892 94.9288 52.8488C94.6305 51.6902 94.7928 48.2506 94.7928 46.8616C94.7929 42.6359 94.7928 38.4103 94.7905 34.0761L98.7127 34.0174C99.1808 34.1569 99.5689 35.7304 101.491 35.6334C102.863 35.5641 103.824 34.3212 103.857 34.1784C104.057 33.3134 118.357 35.3646 118.641 23.8066C118.935 11.8218 103.676 13.4626 104.953 13.0965L84.4247 13C84.5422 14.9011 87.1913 12.84 88.1399 15.3647C88.577 16.5277 88.3573 31.3226 88.3573 33.2097C87.1853 33.8979 85.7671 34.4788 84.5566 35.23C76.4673 40.2495 70.3101 49.8702 70.016 59.9312C69.2123 87.4154 98.8864 102.65 120.657 86.2159C123.886 83.7788 130.039 78.4517 132.522 75.3189C135.246 71.88 140.012 66.254 142.045 62.4045C143.509 64.146 142.228 64.7267 143.962 65.2397C145.261 64.1283 148.168 52.9701 150.479 49.6337C152.587 46.5905 157.483 38.9773 160.632 37.7936L160.572 61.8256C160.018 66.1423 156.594 62.9257 156.133 65.241C160.972 65.241 169.826 66.0283 173.59 64.6008C178.043 62.9121 181.299 59.7381 182.906 55.2039C186.861 44.0415 178.089 34.5479 167.682 34.6578C167.449 31.6594 167.625 28.1171 167.614 25.0547C167.6 21.0512 167.644 19.4466 172.132 19.9567Z" fill="black"/>
<path fill-rule="evenodd" clip-rule="evenodd" d="M86.7954 72.9658V75.6741H85.8281V68.6272C86.5585 68.5959 86.9993 68.5795 87.1508 68.5795C89.2039 68.5795 90.2304 69.264 90.2304 70.6357C90.2304 72.2203 89.324 73.0134 87.5094 73.0134C87.4008 73.0134 87.1623 72.997 86.7954 72.9658ZM86.7954 69.494V72.0985C87.2034 72.1297 87.419 72.1461 87.4403 72.1461C88.6363 72.1461 89.2335 71.6767 89.2335 70.7358C89.2335 69.877 88.5952 69.4468 87.3202 69.4468C87.1919 69.4468 87.0175 69.4627 86.7954 69.494ZM94.4535 75.0828C94.0883 75.5427 93.5273 75.7726 92.7739 75.7726C92.3691 75.7726 92.0187 75.6248 91.7226 75.3308C91.4249 75.0367 91.2767 74.6722 91.2767 74.2336C91.2767 73.7096 91.5055 73.2677 91.9627 72.9054C92.4201 72.544 93.0025 72.3634 93.7115 72.3634C93.9041 72.3634 94.1229 72.4058 94.3663 72.491C94.3663 71.6571 93.9945 71.2397 93.2492 71.2397C92.6768 71.2397 92.2375 71.3944 91.9282 71.7027L91.5433 70.9345C91.7177 70.793 91.9578 70.6733 92.2638 70.5732C92.5714 70.473 92.8643 70.4222 93.1441 70.4222C93.8925 70.4222 94.4371 70.5928 94.776 70.9329C95.115 71.2725 95.2843 71.8129 95.2843 72.5552V74.4042C95.2843 74.8561 95.4193 75.1581 95.689 75.3096V75.7626C95.3156 75.7626 95.0359 75.7101 94.8516 75.6047C94.6657 75.4998 94.5342 75.3255 94.4535 75.0828ZM94.3663 73.1416C94.0784 73.0759 93.8761 73.0431 93.761 73.0431C93.3003 73.0431 92.9236 73.1628 92.6323 73.4012C92.3412 73.6391 92.1948 73.9215 92.1948 74.2468C92.1948 74.784 92.5106 75.0532 93.1407 75.0532C93.603 75.0532 94.0111 74.8333 94.3663 74.393V73.1416ZM100.651 75.6741V72.6738C100.651 72.125 100.568 71.7408 100.402 71.5205C100.238 71.3006 99.9598 71.1904 99.5716 71.1904C99.3626 71.1904 99.1438 71.2529 98.9152 71.3779C98.6881 71.5046 98.5121 71.6571 98.3903 71.841V75.6741H97.4723V70.5207H98.0991L98.3887 71.184C98.6914 70.6765 99.1849 70.4222 99.871 70.4222C101.003 70.4222 101.569 71.1088 101.569 72.4831V75.6741H100.651ZM106.519 75.0828C106.154 75.5427 105.593 75.7726 104.839 75.7726C104.435 75.7726 104.084 75.6248 103.788 75.3308C103.49 75.0367 103.342 74.6722 103.342 74.2336C103.342 73.7096 103.571 73.2677 104.028 72.9054C104.486 72.544 105.068 72.3634 105.777 72.3634C105.97 72.3634 106.188 72.4058 106.432 72.491C106.432 71.6571 106.06 71.2397 105.315 71.2397C104.742 71.2397 104.303 71.3944 103.994 71.7027L103.609 70.9345C103.783 70.793 104.023 70.6733 104.329 70.5732C104.637 70.473 104.93 70.4222 105.21 70.4222C105.958 70.4222 106.503 70.5928 106.842 70.9329C107.18 71.2725 107.35 71.8129 107.35 72.5552V74.4042C107.35 74.8561 107.485 75.1581 107.755 75.3096V75.7626C107.381 75.7626 107.101 75.7101 106.917 75.6047C106.731 75.4998 106.6 75.3255 106.519 75.0828ZM106.432 73.1416C106.144 73.0759 105.942 73.0431 105.826 73.0431C105.366 73.0431 104.989 73.1628 104.698 73.4012C104.407 73.6391 104.26 73.9215 104.26 74.2468C104.26 74.784 104.576 75.0532 105.206 75.0532C105.668 75.0532 106.077 74.8333 106.432 74.393V73.1416ZM113.466 70.9345L113.009 71.575C112.915 71.4828 112.749 71.3959 112.511 71.3138C112.272 71.2317 112.038 71.1904 111.808 71.1904C111.306 71.1904 110.907 71.3647 110.612 71.7144C110.318 72.0624 110.17 72.5403 110.17 73.148C110.17 73.7525 110.319 74.2124 110.617 74.5292C110.916 74.846 111.331 75.0039 111.861 75.0039C112.272 75.0039 112.687 74.846 113.105 74.5308L113.466 75.2995C112.975 75.6148 112.366 75.7726 111.639 75.7726C110.935 75.7726 110.352 75.5358 109.891 75.0648C109.432 74.5933 109.202 73.9528 109.202 73.148C109.202 72.3252 109.442 71.6667 109.923 71.1692C110.405 70.6717 111.063 70.4222 111.897 70.4222C112.167 70.4222 112.458 70.4778 112.772 70.5896C113.086 70.7014 113.317 70.8163 113.466 70.9345ZM118.348 75.6741V72.4338C118.348 72.0476 118.254 71.744 118.065 71.5226C117.875 71.3006 117.609 71.1904 117.265 71.1904C117.045 71.1904 116.823 71.2561 116.599 71.3859C116.377 71.5157 116.206 71.6667 116.087 71.841V75.6741H115.169V68.4121H116.087V71.0855C116.209 70.8969 116.406 70.739 116.678 70.6124C116.948 70.4863 117.229 70.4222 117.517 70.4222C118.063 70.4222 118.491 70.6012 118.802 70.961C119.111 71.3202 119.266 71.8113 119.266 72.4338V75.6741H118.348ZM125.655 73.1909H121.937C121.937 73.7933 122.102 74.2569 122.432 74.5801C122.725 74.8624 123.1 75.0039 123.559 75.0039C124.083 75.0039 124.518 74.8497 124.869 74.5409L125.254 75.201C125.113 75.3424 124.895 75.4654 124.604 75.5687C124.237 75.7054 123.829 75.7726 123.38 75.7726C122.73 75.7726 122.179 75.5522 121.727 75.112C121.222 74.6277 120.97 73.9756 120.97 73.1581C120.97 72.3072 121.228 71.6243 121.746 71.1104C122.209 70.6521 122.757 70.4222 123.39 70.4222C124.125 70.4222 124.703 70.6288 125.121 71.0447C125.525 71.4436 125.727 71.9724 125.727 72.6309C125.727 72.8344 125.703 73.0198 125.655 73.1909ZM123.435 71.1904C123.025 71.1904 122.683 71.3239 122.406 71.5883C122.141 71.841 121.993 72.1546 121.957 72.5308H124.82C124.82 72.1578 124.705 71.8473 124.473 71.5978C124.218 71.3271 123.872 71.1904 123.435 71.1904ZM143.966 75.6741L143.132 71.1512L141.587 75.7726H141.35L139.756 71.1512L138.941 75.6741H138.023L139.346 68.6288H139.78L141.474 73.7721L143.018 68.6288H143.452L144.884 75.6741H143.966ZM149.243 75.0828C148.878 75.5427 148.317 75.7726 147.564 75.7726C147.159 75.7726 146.809 75.6248 146.513 75.3308C146.215 75.0367 146.067 74.6722 146.067 74.2336C146.067 73.7096 146.295 73.2677 146.753 72.9054C147.21 72.544 147.792 72.3634 148.501 72.3634C148.694 72.3634 148.913 72.4058 149.156 72.491C149.156 71.6571 148.785 71.2397 148.039 71.2397C147.467 71.2397 147.027 71.3944 146.718 71.7027L146.333 70.9345C146.507 70.793 146.748 70.6733 147.054 70.5732C147.361 70.473 147.654 70.4222 147.934 70.4222C148.682 70.4222 149.227 70.5928 149.566 70.9329C149.905 71.2725 150.074 71.8129 150.074 72.5552V74.4042C150.074 74.8561 150.209 75.1581 150.479 75.3096V75.7626C150.106 75.7626 149.826 75.7101 149.642 75.6047C149.455 75.4998 149.324 75.3255 149.243 75.0828ZM149.156 73.1416C148.868 73.0759 148.666 73.0431 148.551 73.0431C148.09 73.0431 147.714 73.1628 147.422 73.4012C147.131 73.6391 146.985 73.9215 146.985 74.2468C146.985 74.784 147.3 75.0532 147.931 75.0532C148.393 75.0532 148.801 74.8333 149.156 74.393V73.1416ZM155.598 75.6741L153.981 73.094L153.18 73.9183V75.6741H152.262V68.4121H153.18V72.9133L155.164 70.5207H156.23L154.575 72.4783L156.595 75.6741H155.598ZM162.334 73.1909H158.615C158.615 73.7933 158.78 74.2569 159.111 74.5801C159.404 74.8624 159.779 75.0039 160.238 75.0039C160.761 75.0039 161.197 74.8497 161.547 74.5409L161.932 75.201C161.791 75.3424 161.574 75.4654 161.283 75.5687C160.916 75.7054 160.508 75.7726 160.059 75.7726C159.409 75.7726 158.858 75.5522 158.405 75.112C157.9 74.6277 157.649 73.9756 157.649 73.1581C157.649 72.3072 157.907 71.6243 158.425 71.1104C158.887 70.6521 159.435 70.4222 160.068 70.4222C160.804 70.4222 161.381 70.6288 161.799 71.0447C162.204 71.4436 162.406 71.9724 162.406 72.6309C162.406 72.8344 162.381 73.0198 162.334 73.1909ZM160.113 71.1904C159.703 71.1904 159.361 71.3239 159.084 71.5883C158.82 71.841 158.671 72.1546 158.635 72.5308H161.498C161.498 72.1578 161.383 71.8473 161.151 71.5978C160.896 71.3271 160.55 71.1904 160.113 71.1904ZM163.775 73.0855C163.775 72.2892 163.989 71.6455 164.418 71.156C164.847 70.6669 165.412 70.4222 166.113 70.4222C166.851 70.4222 167.424 70.6569 167.832 71.1284C168.24 71.5978 168.444 72.25 168.444 73.0855C168.444 73.9167 168.235 74.5721 167.817 75.0532C167.399 75.5326 166.831 75.7726 166.113 75.7726C165.375 75.7726 164.803 75.5295 164.392 75.0447C163.98 74.5605 163.775 73.9067 163.775 73.0855ZM164.742 73.0855C164.742 74.3782 165.199 75.0235 166.113 75.0235C166.537 75.0235 166.871 74.8513 167.113 74.5048C167.355 74.1583 167.476 73.6852 167.476 73.0855C167.476 71.8097 167.022 71.1708 166.113 71.1708C165.695 71.1708 165.362 71.3403 165.114 71.6799C164.866 72.0201 164.742 72.4879 164.742 73.0855ZM172.007 75.7726H171.77L169.559 70.5107H170.566L171.923 74.117L173.32 70.5107H174.277L172.007 75.7726ZM180.078 73.1909H176.36C176.36 73.7933 176.525 74.2569 176.855 74.5801C177.148 74.8624 177.523 75.0039 177.982 75.0039C178.506 75.0039 178.941 74.8497 179.292 74.5409L179.677 75.201C179.535 75.3424 179.318 75.4654 179.027 75.5687C178.66 75.7054 178.252 75.7726 177.803 75.7726C177.153 75.7726 176.602 75.5522 176.15 75.112C175.645 74.6277 175.393 73.9756 175.393 73.1581C175.393 72.3072 175.651 71.6243 176.17 71.1104C176.631 70.6521 177.18 70.4222 177.813 70.4222C178.548 70.4222 179.126 70.6288 179.543 71.0447C179.948 71.4436 180.15 71.9724 180.15 72.6309C180.15 72.8344 180.126 73.0198 180.078 73.1909ZM177.858 71.1904C177.447 71.1904 177.106 71.3239 176.829 71.5883C176.564 71.841 176.416 72.1546 176.38 72.5308H179.243C179.243 72.1578 179.127 71.8473 178.895 71.5978C178.641 71.3271 178.295 71.1904 177.858 71.1904ZM184.662 71.3975C184.462 71.2598 184.262 71.1904 184.058 71.1904C183.734 71.1904 183.449 71.3403 183.207 71.6375C182.964 71.9363 182.842 72.294 182.842 72.7146V75.6741H181.924V70.5207H182.842V71.3382C183.176 70.7273 183.675 70.4222 184.334 70.4222C184.497 70.4222 184.734 70.4518 185.043 70.5091L184.662 71.3975ZM186.1 75.3684L186.422 74.5011C186.932 74.8365 187.341 75.0039 187.652 75.0039C188.217 75.0039 188.498 74.766 188.498 74.2913C188.498 73.9496 188.225 73.6571 187.679 73.4124C187.259 73.2206 186.977 73.0744 186.83 72.9742C186.684 72.8757 186.557 72.7623 186.45 72.6357C186.341 72.5075 186.261 72.3729 186.208 72.2304C186.155 72.0873 186.129 71.9348 186.129 71.7705C186.129 71.3467 186.284 71.0166 186.593 70.7782C186.902 70.5403 187.306 70.4222 187.804 70.4222C188.181 70.4222 188.656 70.5403 189.229 70.7782L188.969 71.6243C188.605 71.335 188.24 71.1904 187.873 71.1904C187.654 71.1904 187.47 71.2412 187.32 71.3451C187.171 71.4484 187.097 71.5782 187.097 71.7356C187.097 72.0661 187.284 72.3173 187.659 72.4879L188.316 72.7867C188.715 72.9689 189.008 73.1777 189.191 73.4124C189.373 73.6476 189.466 73.9411 189.466 74.2945C189.466 74.7559 189.302 75.1189 188.979 75.3801C188.654 75.6412 188.205 75.7726 187.631 75.7726C187.088 75.7726 186.578 75.6375 186.1 75.3684Z" fill="black"/>
</g>
</svg>
